<svg width="45" height="34" viewBox="0 0 45 34" fill="none" xmlns="http://www.w3.org/2000/svg">
<path fill-rule="evenodd" clip-rule="evenodd" d="M13.2763 0.214703C11.4472 0.495932 10.3042 0.764652 8.1309 1.42422L6.19635 2.01114L5.05952 1.70025C2.45778 0.98896 2.01759 0.923467 1.44757 1.16352C0.848094 1.41593 0.363514 2.11837 0.363654 2.7348C0.363654 2.96669 0.573346 3.94783 0.829806 4.91506L1.29596 6.67382C1.29596 6.67382 1.01818 7.69567 0.873084 8.35838C0.0629703 12.0585 -0.260544 15.3189 0.894624 19.515C1.05343 20.0919 1.35445 20.976 1.35445 20.976L1.0085 22.4665C0.448536 24.8783 0.435831 25.0648 0.787644 25.695C1.37777 26.7521 1.97962 26.8261 4.58401 26.1628L6.22273 25.7454L8.07422 26.3126C9.09252 26.6246 9.94902 26.8992 9.97764 26.923C10.0061 26.9466 9.98504 27.4431 9.93073 28.0264C9.83831 29.02 9.81122 29.0868 9.50157 29.0868C9.3198 29.0868 9.01197 29.1597 8.81777 29.2488C7.89733 29.671 8.45912 31.7737 9.75356 32.7513L10.2049 33.0923L26.0505 33.1336C34.7655 33.1564 42.1696 33.1356 42.5041 33.0877C42.9535 33.0232 43.2778 32.8472 43.7464 32.4139C44.5037 31.7133 44.758 31.1628 44.758 30.2237C44.758 29.4383 44.4493 29.0868 43.7596 29.0868C43.4036 29.0868 43.3767 29.0406 43.2903 28.2787C42.9528 25.3078 41.8323 22.425 40.0342 19.9018C39.3032 18.8761 36.6617 16.1567 36.3963 16.1567C36.3315 16.1567 36.2469 14.971 36.2082 13.5215C36.1471 11.23 36.0793 10.6221 35.6889 8.85942C35.2004 6.65387 35.1995 6.73384 35.7341 4.72223C36.336 2.4568 36.2637 1.94445 35.0906 1.24138C34.1841 0.698043 32.4053 1.48044 32.4053 1.48044L30.2944 2.01465L28.7657 1.57081C26.9441 1.0418 25.1392 0.671331 22.4904 0.282586C20.1353 -0.0631521 15.3133 -0.0985692 13.2763 0.214703ZM22.5602 2.18415C24.6414 2.4575 26.4039 2.8291 28.5479 3.44637L30.2775 3.94432L32.233 3.44202C33.3084 3.16571 34.215 2.96641 34.2475 2.99916C34.2799 3.03191 34.0781 3.89302 33.7988 4.91281L33.2911 6.76686L33.7144 8.54559C34.1414 10.3395 34.4269 12.5463 34.4269 14.0528V14.8703L33.3302 14.3919C32.0578 13.8369 29.9947 13.2551 28.8267 13.1221L28.0139 13.0295L28.7231 12.2389C29.8948 10.9329 30.0564 10.1354 29.3752 9.01978C28.8756 8.2014 28.2346 7.98932 26.414 8.04047C24.9485 8.08151 24.7933 8.11285 24.3429 8.45873C23.769 8.89948 23.3979 9.61555 23.3979 10.2827C23.3979 10.82 23.9523 11.7789 24.6357 12.4235C24.8763 12.6505 25.0732 12.879 25.0732 12.9311C25.0732 12.9834 24.7423 13.0652 24.3379 13.1131C22.499 13.3307 19.6067 14.334 18.7361 15.0564C18.41 15.3271 18.2324 15.5947 18.2324 15.8156C18.2324 16.1941 18.6769 16.7189 18.9973 16.7189C19.1109 16.7189 19.8214 16.4683 20.5761 16.1619C23.0781 15.1465 25.0469 14.8008 27.5163 14.9432C34.616 15.3526 40.5393 21.0415 41.3468 28.2264L41.4434 29.0868H26.581H11.7186L11.8382 28.1381C12.1164 25.9317 13.099 23.3141 14.3418 21.4685C14.6695 20.9819 15.6791 19.815 16.5854 18.875C18.3007 17.0966 18.3498 16.9997 17.8405 16.4027C17.3335 15.8085 16.3931 16.2872 14.7222 17.9899C13.1192 19.6237 11.4458 22.3449 10.7719 24.4137C10.6397 24.8195 10.4603 25.1516 10.3733 25.1516C10.2863 25.1516 9.32134 24.854 8.22904 24.4904L6.24298 23.8292L4.39261 24.2758C3.37486 24.5215 2.5125 24.6924 2.47607 24.6557C2.43963 24.619 2.60171 23.7236 2.83612 22.6659L3.26234 20.7427L2.93705 19.8727C2.35028 18.3034 2.13249 16.7234 2.14366 14.1189C2.15483 11.5354 2.26316 10.5961 2.82453 8.21601L3.18919 6.67003L2.69399 4.80782C2.38532 3.64679 2.2573 2.94561 2.35405 2.94561C2.43949 2.94561 3.3415 3.16795 4.35882 3.43963L6.20821 3.93364L7.71794 3.50638C9.61088 2.97077 12.747 2.31668 14.3932 2.11416C15.0842 2.02913 15.8381 1.93342 16.0685 1.90137C16.8471 1.79343 20.9441 1.97178 22.5602 2.18415ZM10.909 4.82412C10.1209 5.6175 9.50353 7.4828 9.61591 8.73097C9.70051 9.6698 10.0356 10.4358 10.8214 11.487C11.7035 12.6669 11.7363 13.5709 10.9573 15.2286C10.4763 16.2522 10.473 16.2963 10.8433 16.7702C11.4212 17.5098 12.1836 17.0767 12.8811 15.6127C13.1811 14.9829 13.2702 14.5607 13.3178 13.5425C13.3874 12.0533 13.1789 11.4228 12.1899 10.1323C11.6249 9.39504 11.601 9.32336 11.6013 8.36836C11.6016 7.54393 11.6804 7.19749 12.06 6.35395C12.5487 5.2681 12.529 4.94415 11.956 4.63537C11.5429 4.41289 11.2683 4.46236 10.909 4.82412ZM16.7761 4.96354C15.7627 6.04531 15.7522 7.73156 16.7507 9.05169C17.2659 9.73276 17.3127 10.0566 16.9871 10.6855C16.4636 11.6967 16.7266 12.5026 17.5803 12.5026C18.3102 12.5026 19.07 11.2845 19.07 10.1145C19.07 9.31507 18.8365 8.65268 18.3093 7.95685C17.8843 7.3958 17.8574 6.84571 18.2159 6.03969C18.5145 5.36817 18.4669 4.99615 18.0443 4.69806C17.5921 4.3793 17.2579 4.44929 16.7761 4.96354ZM41.1593 4.71042C40.7344 5.00992 40.7636 5.48735 41.2831 6.73173C41.8873 8.17975 41.8221 8.97116 41.0067 10.0857C40.1993 11.1892 39.8851 11.9106 39.7827 12.8957C39.6777 13.9075 40.0493 15.3013 40.6979 16.3284C41.1837 17.0975 41.648 17.2904 42.1762 16.942C42.6372 16.638 42.6305 16.0771 42.1545 15.1332C41.909 14.6459 41.7629 14.0927 41.7194 13.4843C41.6549 12.5844 41.6648 12.5525 42.29 11.6331C43.3809 10.0292 43.5015 9.70451 43.5015 8.37469C43.5015 6.967 43.1641 5.92641 42.4259 5.05827C41.9039 4.44438 41.6394 4.37171 41.1593 4.71042ZM27.0748 10.0845C28.0417 9.62553 28.1201 10.1323 27.2304 11.0899L26.5953 11.7733L25.9739 11.1045C25.0814 10.144 25.1276 9.68779 26.0785 10.0708C26.574 10.2703 26.6805 10.2719 27.0748 10.0845ZM42.1752 31.195C41.8464 31.3372 15.0144 31.6807 12.4387 31.2006C15.5101 31.1933 17.8938 31.097 26.6089 31.089C35.5534 31.0806 42.3328 31.1268 42.1752 31.195Z" fill="#FCFCFC"/>
</svg>
