<svg width="36" height="37" viewBox="0 0 36 37" fill="none" xmlns="http://www.w3.org/2000/svg">
<path fill-rule="evenodd" clip-rule="evenodd" d="M11.0755 1.05974C10.837 1.26457 10.8324 1.28652 10.8042 2.35612L10.7756 3.44412H8.45359H6.45152C6.24513 3.44412 6.04558 3.51811 5.88909 3.65267C5.73502 3.78519 5.64598 3.97801 5.64501 4.18123L5.60332 12.9127L5.5601 21.9642L4.90514 22.2396C3.15283 22.9765 1.67203 24.4617 0.942305 26.2143C0.528517 27.2081 0.388657 28.0843 0.438274 29.3717C0.485816 30.6048 0.617031 31.0865 1.26205 32.3966C1.61083 33.1049 1.78518 33.3362 2.53271 34.0818C3.00926 34.5572 3.62566 35.079 3.90253 35.2414C4.67513 35.6946 5.87612 36.112 6.67016 36.2033C7.08084 36.2505 13.2209 36.2846 21.3738 36.285L35.3724 36.2857L35.6148 36.0535L35.8573 35.8212V19.8853V4.30665C35.8573 4.07789 35.7664 3.85849 35.6046 3.69674C35.4428 3.53499 35.2234 3.44412 34.9947 3.44412H33.0114H30.6709V2.48912C30.6709 1.47907 30.5705 1.1154 30.2434 0.940385C29.8705 0.740829 29.3094 0.934681 29.1318 1.32429C29.0718 1.45591 29.0285 1.94767 29.0285 2.49751V3.44412H20.7303H12.4321V2.5281C12.4321 1.50768 12.3118 1.11531 11.9484 0.949805C11.6143 0.797524 11.3405 0.832008 11.0755 1.05974ZM10.7897 6.08873V6.58573C10.7897 6.91753 10.8569 7.26943 11.1269 7.4623C11.3198 7.60012 11.5355 7.67246 11.6775 7.64413C11.8311 7.61345 12.0539 7.49115 12.1728 7.37241C12.3749 7.17034 12.3908 7.08988 12.4195 6.12131L12.4503 5.0862H20.7394H29.0285V6.07871C29.0285 7.04969 29.0339 7.07726 29.2769 7.34916C29.6264 7.74014 30.0731 7.74014 30.4225 7.34916C30.6655 7.07726 30.6709 7.04969 30.6709 6.07871V5.0862H32.4861H34.3014V8.15429V11.2224H20.7303H7.15924V8.15429V5.0862H8.97447H10.7897V6.08873ZM34.3014 23.7972V34.73H23.3994C14.6884 34.73 12.5151 34.7083 12.5854 34.622C13.7561 33.1866 14.4688 31.9413 14.774 30.7977C15.0566 29.7389 15.0386 28.1213 14.7326 27.099C13.9003 24.3184 11.7452 22.3309 8.98848 21.8016C8.63961 21.7346 8.17283 21.6793 7.9512 21.6786C7.72957 21.678 7.46065 21.654 7.35373 21.6254L7.15924 21.5733V17.2188V12.8645H20.7303H34.3014V23.7972ZM15.0564 16.6205C14.7631 16.8259 14.6378 17.2222 14.7673 17.5349C14.9935 18.0807 14.5199 18.05 22.6896 18.05H30.1426L30.3832 17.8431C30.726 17.5482 30.726 16.9961 30.3832 16.7012L30.1426 16.4943H22.6896C16.295 16.4943 15.211 16.5122 15.0564 16.6205ZM17.5914 21.9223C17.2546 22.2737 17.2691 22.7364 17.6276 23.0712L17.8961 23.3219H23.9896H30.0831L30.377 23.0281C30.7793 22.6258 30.7496 22.2025 30.2934 21.833C30.1226 21.6947 29.6559 21.6835 23.9664 21.6817L17.8237 21.6798L17.5914 21.9223ZM8.87006 23.4566C10.7853 23.8438 12.3289 25.2005 13.0516 27.1319C13.3048 27.8085 13.324 27.9376 13.3265 28.9828C13.3289 29.9852 13.3045 30.1743 13.1003 30.7377C12.7514 31.7002 12.3778 32.2896 11.6601 33.0097C10.5751 34.0982 9.24581 34.6436 7.67788 34.6436C6.66774 34.6436 6.03785 34.4931 5.11243 34.0307C3.87253 33.4111 2.92403 32.3596 2.35171 30.9705C2.11261 30.3902 2.1025 30.3093 2.1025 28.9828C2.1025 27.6043 2.10345 27.5979 2.39329 26.9259C3.54907 24.2466 6.07779 22.8921 8.87006 23.4566ZM10.2516 26.6029C10.1329 26.6961 9.54022 27.5323 8.93445 28.461C8.32868 29.3896 7.8078 30.1475 7.77702 30.1452C7.74625 30.1428 7.27377 29.4944 6.72704 28.7043C6.1803 27.9143 5.5881 27.1137 5.41108 26.9253C5.1202 26.6157 5.05883 26.5877 4.77367 26.6339C4.36982 26.6994 4.15139 26.8998 4.08223 27.2683C4.01775 27.6121 3.96908 27.53 5.743 30.0651C7.20894 32.1598 7.38441 32.373 7.70562 32.4479C8.15814 32.5535 8.65387 31.914 11.0219 28.1701C11.5602 27.3192 11.597 27.0543 11.2286 26.6858C10.9283 26.3856 10.5669 26.3549 10.2516 26.6029ZM20.2208 27.1161C19.8543 27.4584 19.8482 27.898 20.205 28.2548L20.4577 28.5074H25.296H30.1344L30.4026 28.2019C30.5501 28.0339 30.6709 27.8019 30.6709 27.6864C30.6709 27.5708 30.5501 27.3389 30.4026 27.1709L30.1344 26.8653H25.3118H20.4893L20.2208 27.1161Z" fill="#FCFCFC"/>
</svg>
