<svg width="38" height="49" viewBox="0 0 38 49" fill="none" xmlns="http://www.w3.org/2000/svg">
<path fill-rule="evenodd" clip-rule="evenodd" d="M13.5606 0.11701C12.9039 0.397215 12.3966 0.864962 11.3849 2.12284C10.276 3.50147 9.89942 3.74627 8.62563 3.91569C6.55106 4.19161 5.73644 4.48384 5.08516 5.18588C4.43181 5.8904 4.19365 6.5941 3.92479 8.61653C3.75495 9.89336 3.51167 10.2661 2.11521 11.3893C0.350577 12.8085 0.0551579 13.2738 0.0583389 14.6278C0.0602752 15.5192 0.1398 15.8709 0.592334 16.9891C1.27902 18.6865 1.27279 19.1299 0.535905 21.0634C0.0333059 22.3821 -0.0347401 22.6901 0.0125601 23.4331C0.0850318 24.5712 0.485977 25.155 2.06141 26.4165C3.41859 27.5033 3.77763 28.0442 3.92811 29.2291C4.09352 30.5304 4.30623 31.4421 4.56196 31.9458C4.83566 32.4846 5.8641 33.4474 6.16615 33.4474C6.26656 33.4474 6.34872 33.545 6.34872 33.6642C6.34872 33.7834 5.60146 35.9067 4.68809 38.3825C3.77486 40.8581 2.9904 43.116 2.94504 43.3999C2.87367 43.8461 2.91281 43.9556 3.23395 44.2082C3.70225 44.5765 3.79118 44.5601 7.03457 43.5094C8.6768 42.9775 9.65489 42.7251 9.77646 42.8019C9.88033 42.8676 10.6369 44.0415 11.4576 45.4107C13.012 48.0038 13.244 48.2468 13.9874 48.0602C14.4147 47.9529 14.4286 47.9216 16.6444 42.0382C18.4211 37.3206 18.7141 36.6284 18.9345 36.6284C19.1563 36.6284 19.4625 37.3518 21.2144 42.0148C23.4074 47.851 23.452 47.9525 23.8815 48.0602C24.6354 48.2494 24.8572 48.0129 26.4588 45.3127C27.3029 43.8895 28.0704 42.7225 28.1648 42.7194C28.259 42.7163 29.4726 43.0782 30.8617 43.5237C34.0949 44.5606 34.1697 44.5741 34.6349 44.2082C35.1239 43.8237 35.0753 43.552 33.9981 40.6392C33.5338 39.3841 32.7617 37.2816 32.2824 35.9669L31.4109 33.5765L31.9168 33.3183C33.0688 32.7307 33.5939 31.7575 33.8703 29.6982C34.0978 28.0033 34.3669 27.5469 35.8118 26.4056C36.4896 25.8701 37.2172 25.1704 37.4287 24.8506C37.7676 24.3379 37.8118 24.1453 37.8023 23.2223C37.7934 22.3498 37.7043 21.9567 37.268 20.8616C36.5975 19.1791 36.5985 18.6865 37.2749 16.9891C37.714 15.8871 37.7996 15.5062 37.8057 14.6266C37.8124 13.6811 37.7723 13.519 37.3981 12.9774C37.1699 12.647 36.4158 11.9246 35.7223 11.3721C34.2856 10.2274 34.1173 9.93333 33.8715 8.13883C33.4775 5.26056 32.5952 4.38537 29.6973 3.9977C27.9624 3.76563 27.6295 3.57076 26.4614 2.10348C25.8944 1.39121 25.1714 0.637036 24.8549 0.427642C24.3528 0.095296 24.1456 0.0470276 23.232 0.0492405C22.3406 0.0511767 21.9889 0.130702 20.8707 0.583235C19.1965 1.26051 18.7036 1.2619 16.9982 0.593885C15.6075 0.0491021 14.1829 -0.148397 13.5606 0.11701ZM16.4675 2.54841C18.2505 3.24975 19.2218 3.31309 20.5958 2.81755C23.3555 1.82231 23.1861 1.86546 23.6222 2.04608C23.8466 2.13903 24.3252 2.59861 24.6856 3.06719C25.6538 4.32604 26.4075 5.08436 26.9893 5.38504C27.2738 5.53206 28.2106 5.77271 29.0709 5.91972C30.8838 6.22967 31.3151 6.37074 31.4974 6.71332C31.5701 6.8501 31.7286 7.5863 31.8496 8.34919C32.2532 10.895 32.4673 11.2392 35.0142 13.4363C35.5644 13.911 35.9459 14.3494 35.9459 14.5069C35.9459 14.6535 35.684 15.4433 35.3639 16.2617C34.8413 17.5983 34.7822 17.8694 34.7842 18.9254C34.786 19.9611 34.8488 20.2569 35.3115 21.4129C35.6004 22.1344 35.8428 22.9349 35.8501 23.1919C35.8642 23.6906 35.7172 23.8556 33.7604 25.5356C32.5465 26.578 32.2694 27.126 31.9224 29.17C31.7619 30.1153 31.5709 31.0006 31.4979 31.1374C31.3201 31.4703 30.9015 31.6141 29.4069 31.8559C26.9673 32.2503 26.6644 32.4412 24.4527 34.9762C23.7342 35.7996 23.6389 35.8626 23.1388 35.8428C22.8421 35.831 22.0394 35.5904 21.3548 35.3078C19.63 34.5962 18.6577 34.5319 17.2731 35.0384C14.5308 36.0414 14.6671 36.0106 14.169 35.7424C13.9215 35.6091 13.4769 35.1781 13.1811 34.7849C11.6185 32.7076 10.9035 32.2451 8.76822 31.9307C7.24659 31.7066 6.62975 31.5085 6.4122 31.1739C6.31027 31.0171 6.1284 30.2663 6.00793 29.5057C5.60381 26.9515 5.27602 26.388 3.31058 24.8676C1.91702 23.7894 1.79268 23.5071 2.20441 22.3538C3.21445 19.5237 3.20104 19.5773 3.13216 18.6487C3.08818 18.0558 2.89331 17.326 2.55986 16.505C2.28173 15.8204 2.01909 15.0412 1.97607 14.7736C1.89115 14.2455 1.96584 14.1603 4.24261 12.1855C5.29746 11.2706 5.61957 10.6041 5.95206 8.64931C6.097 7.79735 6.25024 6.98979 6.29257 6.85453C6.42658 6.42744 6.93623 6.21722 8.3569 6.00298C10.8445 5.6279 11.5318 5.22682 12.9965 3.29512C14.1858 1.7266 14.3101 1.69977 16.4675 2.54841ZM16.665 5.7355C12.276 6.53947 8.32177 9.68535 6.64884 13.7039C5.21462 17.149 5.24601 21.0634 6.73403 24.3452C8.44929 28.1283 11.7671 30.8887 15.8551 31.9343C17.4749 32.3487 20.3974 32.3137 22.1915 31.8585C26.8842 30.6681 30.6461 26.9051 31.8816 22.1657C32.3655 20.3085 32.3962 17.7832 31.9567 15.9785C31.3575 13.5193 30.2692 11.5053 28.5599 9.69337C26.5043 7.51424 23.3273 5.91627 20.6633 5.72126C18.206 5.54146 17.7143 5.54326 16.665 5.7355ZM21.0121 7.77965C23.1396 8.15929 25.0421 9.14886 26.7124 10.7445C29.2596 13.1781 30.4346 16.1598 30.2351 19.6838C30.0842 22.3478 29.0488 24.6795 27.1206 26.6978C24.673 29.2596 21.7151 30.4264 18.176 30.226C15.3663 30.0668 12.8817 28.9053 10.8541 26.8033C8.81787 24.6922 7.78833 22.4109 7.63288 19.6653C7.31007 13.9652 11.0541 9.02038 16.6155 7.80205C17.7409 7.55545 19.7 7.5455 21.0121 7.77965ZM18.324 11.5016C18.1474 11.6782 17.6525 12.5029 17.2245 13.3341C16.7965 14.1653 16.3959 14.9227 16.3343 15.0171C16.2725 15.1122 15.4106 15.3134 14.4073 15.4672C13.409 15.6203 12.4789 15.7857 12.3404 15.8351C11.8766 16.0001 11.6043 16.3368 11.6043 16.7455C11.6043 17.0761 11.8859 17.4348 13.133 18.6931L14.6617 20.2357L14.3005 22.3812L13.9394 24.5267L14.3716 24.9134C14.9011 25.387 14.8877 25.3903 17.1597 24.2101L18.9116 23.2999L20.8624 24.2956C22.7374 25.2525 22.8283 25.2835 23.2005 25.091C23.9492 24.7037 23.9534 24.6722 23.562 22.3451L23.2017 20.2026L24.7332 18.6833C26.3584 17.0708 26.5133 16.7693 26.0226 16.1718C25.7805 15.877 25.288 15.7565 22.5594 15.324L21.551 15.1643L20.7812 13.6218C20.3579 12.7734 19.8593 11.8769 19.6734 11.6298C19.2653 11.0872 18.7841 11.0414 18.324 11.5016ZM19.4956 15.4846C20.2158 16.9746 20.338 17.0681 21.8286 17.2718L23.1041 17.446L22.1257 18.431C21.0412 19.5227 21.039 19.5302 21.3062 21.1486C21.3938 21.678 21.4338 22.1426 21.3953 22.181C21.3569 22.2195 20.7875 21.9928 20.13 21.6773L18.9345 21.1038L17.7389 21.6773C17.0814 21.9928 16.512 22.2195 16.4736 22.181C16.4351 22.1426 16.4751 21.678 16.5627 21.1486C16.8249 19.5603 16.823 19.5535 15.7496 18.4467L14.7777 17.4444L16.0466 17.271C17.5302 17.0682 17.6536 16.9735 18.3733 15.4846C18.6353 14.9429 18.8878 14.4996 18.9345 14.4996C18.9811 14.4996 19.2336 14.9429 19.4956 15.4846ZM9.91421 34.3242C10.3102 34.5241 10.8139 35.0103 11.4356 35.7929C12.6343 37.3016 13.2451 37.7342 14.3144 37.8312C14.7636 37.8719 15.3607 37.8419 15.6411 37.7644C16.1296 37.6296 16.1465 37.6362 16.0383 37.9212C15.9762 38.0849 15.3811 39.6814 14.716 41.469C14.0509 43.2566 13.4895 44.7387 13.4686 44.7626C13.4478 44.7865 13.0091 44.1019 12.4939 43.2413C10.9236 40.6183 10.8292 40.5009 10.2923 40.5009C10.0345 40.5009 8.88619 40.8048 7.74034 41.1762C6.59462 41.5477 5.65719 41.7939 5.65719 41.7232C5.65719 41.6011 7.97241 35.2582 8.36396 34.3077C8.52826 33.9092 8.59741 33.8646 8.93654 33.9399C9.1487 33.987 9.58864 34.1599 9.91421 34.3242ZM30.8726 37.9539C31.5238 39.7097 32.0968 41.3068 32.146 41.5028L32.2355 41.8593L30.1405 41.1801C28.9881 40.8066 27.8344 40.5009 27.5766 40.5009C27.035 40.5009 26.8954 40.6745 25.3723 43.2436C24.8612 44.1057 24.4254 44.7903 24.404 44.765C24.3524 44.7044 22.2886 39.2492 21.9723 38.3373L21.7254 37.6257L22.2261 37.7638C22.5015 37.8399 23.0875 37.876 23.5282 37.8442C24.5832 37.7679 25.2176 37.3181 26.4721 35.7575C27.593 34.3628 27.7811 34.2123 28.6186 34.0408C29.2206 33.9176 29.2445 33.926 29.4635 34.3376C29.5872 34.5707 30.2214 36.198 30.8726 37.9539Z" fill="#FCFCFC"/>
</svg>
