<svg width="43" height="43" viewBox="0 0 43 43" fill="none" xmlns="http://www.w3.org/2000/svg">
<path fill-rule="evenodd" clip-rule="evenodd" d="M19.8332 0.106878C17.3363 0.666137 15.3054 2.23442 14.1303 4.51096C13.9247 4.90925 13.656 5.5675 13.5332 5.97372L13.31 6.7123L13.3028 10.1416C13.2959 13.4601 13.3017 13.5921 13.4817 14.2319C13.9187 15.7841 15.0389 17.5615 16.133 18.4384L16.6388 18.8438V20.9279C16.6388 22.4993 16.6134 23.0309 16.5356 23.0886C16.4789 23.1307 15.6333 23.324 14.6567 23.5183C10.6139 24.3223 8.06573 24.9145 7.38825 25.2075C5.86926 25.8646 4.33615 27.0897 3.52025 28.2986C3.10863 28.9084 2.59195 29.9319 2.40298 30.5118C2.14225 31.3118 0.286133 41.1395 0.286133 41.72C0.286133 41.7515 0.38235 41.8916 0.499957 42.0315L0.713781 42.2857H21.4716H42.2296L42.4007 42.068C42.5023 41.9388 42.5719 41.7287 42.5718 41.5515C42.5718 41.219 41.6433 36.0692 41.0047 32.8594C40.3967 29.803 39.9435 28.8298 38.405 27.2765C37.5265 26.3897 36.7624 25.8436 35.7363 25.3693C35.0728 25.0626 32.5974 24.4551 28.573 23.6114C27.4374 23.3734 26.4653 23.1668 26.4126 23.1523C26.2681 23.1124 26.2011 22.0951 26.2325 20.4178L26.2605 18.9188L27.0541 18.1454C28.2257 17.0035 28.933 15.8347 29.3732 14.313C29.5596 13.6693 29.5641 13.5682 29.5634 10.1002L29.5629 6.54703L29.3278 5.84465C28.8504 4.41816 27.9014 2.93028 26.8999 2.03801C26.0159 1.25043 24.7801 0.584908 23.4938 0.203723C22.7505 -0.0165756 20.6343 -0.072518 19.8332 0.106878ZM22.2946 1.46693C23.2349 1.55841 23.7216 1.69805 24.4848 2.0956C25.7699 2.76501 26.8439 3.83147 27.4608 5.0508C27.8153 5.75161 28.0864 6.56562 27.9956 6.65644C27.9204 6.73171 15.1498 6.72824 14.9663 6.65288C14.8329 6.5981 14.8409 6.54108 15.0696 5.91398C15.4407 4.89644 15.9178 4.15506 16.7142 3.3584C17.4993 2.57289 18.2649 2.07536 19.1819 1.75474C20.2216 1.39132 20.8859 1.32993 22.2946 1.46693ZM27.698 8.23439C27.8792 8.34917 26.6307 9.55635 26.0434 9.83433C25.2796 10.1958 24.7088 10.2378 20.9585 10.2092L17.506 10.1829L17.0105 9.952C16.3718 9.65435 14.981 8.3195 15.2137 8.22737C15.4303 8.14159 27.5623 8.14845 27.698 8.23439ZM16.5221 11.3767C16.976 11.5466 17.0859 11.5499 21.5408 11.5276L26.0953 11.505L26.5496 11.2727C26.7994 11.145 27.2767 10.7731 27.6102 10.4464L28.2166 9.85234L28.1757 11.6703C28.1291 13.7431 28.0675 14.0645 27.4945 15.2235C26.6696 16.8919 25.246 18.1179 23.4525 18.7044C22.5578 18.997 21.0039 19.0707 20.0775 18.8644C17.875 18.3742 16.034 16.8341 15.1709 14.7597C14.8377 13.959 14.7582 13.4041 14.6999 11.4729L14.6515 9.87077L15.3548 10.5369C15.8766 11.031 16.1779 11.2478 16.5221 11.3767ZM19.9004 20.2801C21.1415 20.5574 23.028 20.4074 24.2939 19.9307L24.8152 19.7344V22.0397V24.345L24.2164 24.8162C23.0973 25.6971 22.0771 26.0015 20.7886 25.8391C19.9897 25.7384 19.4014 25.445 18.6663 24.7806L18.0576 24.2304L18.0502 21.9875L18.0429 19.7445L18.6822 19.9477C19.0339 20.0594 19.582 20.209 19.9004 20.2801ZM18.8706 26.6913C19.6335 27.0561 20.5356 27.247 21.4875 27.2451C23.1891 27.2418 24.2601 26.7687 25.7401 25.3666C26.1401 24.9877 26.5319 24.6849 26.6223 24.6849C26.7116 24.6849 26.9778 24.7296 27.2138 24.784L27.6427 24.8831L27.6056 25.7963C27.5762 26.5183 27.5273 26.8045 27.3719 27.1639C27.2009 27.5596 24.6942 31.0075 24.2007 31.5258L24.0209 31.7147L23.6309 31.4168C22.3118 30.409 20.7525 30.3817 19.4466 31.3436C19.017 31.66 18.9126 31.705 18.8223 31.6129C18.7626 31.552 18.0424 30.6115 17.2218 29.523C15.5023 27.2421 15.4093 27.0556 15.3404 25.7525L15.2941 24.8782L15.8632 24.7533L16.4324 24.6286L17.3427 25.5122C18.0662 26.2146 18.3796 26.4564 18.8706 26.6913ZM13.9194 26.1376C13.9597 26.9747 14.0013 27.1991 14.1961 27.6324C14.3298 27.9295 15.1747 29.1472 16.2225 30.5529L18.0195 32.9637L18.0633 33.9801C18.1054 34.9536 18.1202 35.0211 18.4139 35.5803C18.7913 36.2989 19.3384 36.8242 20.0813 37.1811C20.391 37.3299 20.6718 37.4889 20.7051 37.5343C20.7385 37.5798 20.7663 37.9609 20.7671 38.3813C20.769 39.5583 20.8224 39.5854 23.0556 39.5439C24.4353 39.5182 24.4777 39.5121 24.693 39.3109L24.914 39.1044L24.8866 36.0469L24.8592 32.9895L26.2392 31.1508C27.7795 29.0985 28.5325 28.0085 28.7422 27.5278C28.8328 27.3201 28.9022 26.8611 28.9372 26.2385C28.967 25.7068 29.0088 25.2548 29.03 25.2343C29.0753 25.1901 32.6451 25.9699 33.9 26.298C35.4047 26.6915 36.3733 27.2308 37.3744 28.2325C38.3367 29.1953 39.0101 30.3772 39.3334 31.6706C39.6064 32.7632 40.5473 38.0588 40.4804 38.1258C40.4462 38.1599 38.608 38.1895 36.3952 38.1916L32.3721 38.1954L32.3308 34.986L32.2895 31.7766L32.0946 31.6187C31.7839 31.3671 31.2942 31.4434 31.0327 31.7842C30.9565 31.8835 30.9314 33.0134 30.9295 36.4398L30.9268 40.9642L21.4497 40.9433L11.9725 40.9223L11.9312 36.3081L11.89 31.694L11.695 31.5361C11.3843 31.2845 10.8946 31.3607 10.6331 31.7015C10.5581 31.7992 10.5318 32.6417 10.5299 35.0055L10.5272 38.1784L6.47696 38.1352C4.24927 38.1115 2.40819 38.0738 2.38572 38.0512C2.34352 38.0091 3.22805 33.0575 3.50679 31.7755C3.98895 29.5571 5.72481 27.4716 7.8102 26.6051C8.14625 26.4655 8.90434 26.2356 9.49486 26.0943C11.6266 25.5841 13.7087 25.1195 13.7895 25.1359C13.8358 25.1453 13.8929 25.5862 13.9194 26.1376ZM22.1209 32.2236C22.5688 32.3579 23.1994 32.9729 23.3298 33.4027C23.3924 33.6088 23.4457 34.5668 23.4716 35.9473L23.513 38.1613L22.8633 38.1371L22.2136 38.1128L22.1723 37.3648C22.1183 36.3866 22.0107 36.2158 21.3693 36.0899C20.6983 35.9582 20.4438 35.8452 20.0822 35.5183C19.6313 35.1107 19.5006 34.8138 19.4966 34.1877C19.4925 33.5335 19.6292 33.1112 19.9711 32.7215C20.454 32.1713 21.2958 31.9763 22.1209 32.2236ZM20.9711 33.5642C20.6869 33.8485 20.7017 34.2164 21.0097 34.5246C21.5936 35.1086 22.4634 34.4757 22.0763 33.7484C21.8439 33.312 21.3118 33.2232 20.9711 33.5642ZM10.5272 40.2315V40.9042L6.28659 40.864C3.95426 40.8419 2.00812 40.8004 1.96187 40.7718C1.90497 40.7366 1.90753 40.5528 1.96972 40.205C2.04876 39.763 2.09104 39.6821 2.26828 39.6328C2.38184 39.6011 4.2866 39.5716 6.50099 39.5671L10.5272 39.5588V40.2315ZM40.9025 40.1656C40.9643 40.4766 40.9927 40.7533 40.9656 40.7805C40.9384 40.8077 38.9937 40.8321 36.6442 40.8348L32.3721 40.8396L32.348 40.1985L32.3239 39.5573L36.5569 39.5787L40.7901 39.6001L40.9025 40.1656Z" fill="#FCFCFC"/>
</svg>
