<svg width="45" height="43" viewBox="0 0 45 43" fill="none" xmlns="http://www.w3.org/2000/svg">
<path fill-rule="evenodd" clip-rule="evenodd" d="M13.0609 0.502177C12.9559 0.543268 12.8271 0.654654 12.7747 0.749654C12.7223 0.844655 11.8922 4.37114 10.93 8.58623C9.96783 12.8014 9.15934 16.3169 9.13336 16.3987C9.10748 16.4805 9.03122 16.5473 8.96397 16.5473C8.89672 16.5473 7.61048 17.3451 6.10578 18.3204L3.36993 20.0934L1.68648 21.7424C-0.324562 23.7124 -0.296228 23.6456 0.525908 24.4766L1.0487 25.0052L2.02204 25.938L3.32927 27.2049L4.63659 28.4719L5.60756 29.4188L6.9148 30.6857L8.22211 31.9527L9.19309 32.8996L10.5003 34.1665L12.7835 36.3838L14.0619 37.6248L15.3403 38.8658L16.4789 39.8093C16.4789 39.8093 16.8457 40.0339 17.2172 40.3085C17.5888 40.583 18.1866 40.9902 18.5457 41.2133C18.9049 41.4363 19.2258 41.6388 19.2258 41.6388L20.5488 42.2713C20.5488 42.2713 20.8372 42.3458 21.1098 42.4368C22.1371 42.7799 23.3177 42.8073 24.0523 42.5052C24.2207 42.436 24.7392 41.997 25.2046 41.5298C26.1889 40.5416 26.2785 40.3376 26.2199 39.215C26.1883 38.6107 26.1312 38.3872 25.8686 37.8403C25.2732 36.6004 24.2363 35.3345 22.8847 34.1975C22.183 33.6071 22.1271 33.5351 21.9575 33.0018C21.6815 32.1339 21.087 30.3432 21.087 30.3432L20.4232 30.5314L19.7594 30.7196L20.909 34.273L21.8029 35.0548C22.7376 35.8723 23.6284 36.7998 24.0636 37.4087C24.4139 37.8988 24.8392 38.7896 24.8393 39.0334C24.8394 39.2185 24.8141 39.2296 24.5114 39.1778C23.2059 38.9547 21.4783 38.0428 19.5923 36.5814C19.0601 36.1691 16.649 33.9137 13.858 31.2175C8.64967 26.1861 15.2333 32.4818 9.97255 27.502C9.25529 27.4082 8.8485 27.4023 8.13124 27.3085C12.3001 31.844 8.53458 27.9278 12.9676 32.2208C15.9235 35.0833 18.156 37.174 18.7177 37.6058C20.5512 39.0152 22.2353 39.9594 23.5954 40.3406L24.3106 40.5412L23.8741 40.9585L23.4375 41.376L22.8048 41.3686C22.021 41.3595 21.0978 41.0635 19.9858 40.4648C17.7774 39.2758 17.189 38.7597 9.01058 30.839L1.62089 23.6822L2.25405 23.0665L2.88728 22.4507L4.96925 24.4655C7.10011 26.5276 5.81534 25.4439 8.13124 27.3085C8.8485 27.4023 9.25529 27.4082 9.97255 27.502C8.86482 26.4109 7.03321 24.6157 5.91994 23.5299C4.20256 21.8552 3.9096 21.5335 3.98708 21.4075C4.03736 21.3259 5.11932 20.5803 6.39148 19.7505L8.7045 18.2421L9.06541 18.9963C10.1539 21.2709 11.7388 23.2071 13.0216 23.8294C14.1365 24.3702 15.3756 24.3773 16.7721 23.8509C17.1397 23.7123 17.4454 23.6074 17.4514 23.6175C17.5221 23.7379 18.0881 25.5918 18.0619 25.6172C18.0423 25.6363 17.8402 25.6855 17.6128 25.7268C16.873 25.8609 16.5938 26.1819 16.7872 26.6757C16.9257 27.0293 17.2212 27.119 17.9323 27.0236C18.5109 26.946 18.6303 26.9758 18.6303 27.1979C18.6303 27.2113 18.3937 27.2675 18.1046 27.3227C17.717 27.3967 17.5431 27.4762 17.4427 27.6249C17.2439 27.9194 17.315 28.3397 17.5982 28.544C17.8147 28.7002 17.8829 28.7063 18.4257 28.6191C18.8731 28.5471 19.0327 28.548 19.0804 28.623C19.1819 28.7823 19.0986 28.8316 18.6242 28.8927C17.9096 28.9847 17.6078 29.3832 17.8546 29.9089C17.9985 30.2156 18.34 30.3272 18.8111 30.2218C19.5394 30.0588 19.7594 30.7196 19.7594 30.7196L20.4232 30.5314L21.087 30.3432C21.087 30.3432 20.9279 29.8318 21.0825 29.7749C21.698 29.5482 21.4116 28.5179 20.7331 28.5179C20.4088 28.5179 20.3904 28.3724 20.6852 28.139C21.2075 27.7255 20.9436 26.9836 20.2676 26.965C20.0157 26.958 19.9421 26.9214 19.9421 26.8031C19.9421 26.719 20.0011 26.6501 20.0733 26.6501C20.304 26.6501 20.5542 26.3266 20.5542 26.0281C20.5542 25.6385 20.2543 25.377 19.8053 25.3754L19.4611 25.3742L19.0102 23.9692L18.5592 22.5642L20.2025 18.7591C22.1369 14.2798 21.9957 14.3941 21.9957 14.3941L20.9147 13.8942C20.9147 13.8942 20.0474 15.636 19.0005 18.0754L17.2699 22.1081L16.6165 22.4269C14.6087 23.4068 13.2047 22.8808 11.5436 20.5264C10.9141 19.6341 10.1532 18.2048 10.2019 18.006C10.2211 17.9275 10.727 15.7091 11.3261 13.0763C11.9253 10.4435 12.4312 8.27415 12.4505 8.25547C12.4697 8.23679 12.8251 8.3171 13.2404 8.43384C14.671 8.83634 16.5831 9.26202 19.4131 9.80799C20.9739 10.1092 22.263 10.3672 22.2777 10.3814C22.2923 10.3957 22.127 10.8181 21.9103 11.3203C21.6936 11.8224 20.9147 13.8942 20.9147 13.8942L21.9957 14.3941C21.9957 14.3941 27.7253 1.40006 27.7253 1.08449C27.7253 0.540551 26.9792 0.241796 26.5983 0.633174C26.5096 0.72427 25.9718 1.88754 25.4031 3.21831C24.8344 4.54909 24.3594 5.65123 24.3477 5.66753C24.3273 5.69605 13.7452 3.22561 13.636 3.16678C13.6066 3.15107 13.6747 2.74552 13.7871 2.26559C14.0612 1.09621 14.0575 0.816044 13.7649 0.592678C13.5178 0.40395 13.363 0.383999 13.0609 0.502177ZM18.6303 5.73163C21.2998 6.35834 23.5497 6.89923 23.6302 6.93369C23.7593 6.98888 23.7247 7.11623 23.3371 8.01504C23.0954 8.57536 22.8866 9.04527 22.873 9.05928C22.8346 9.09893 18.5055 8.27635 16.7501 7.89584C14.9361 7.50259 12.9397 6.98175 12.827 6.87231C12.7822 6.82885 12.8481 6.35715 12.984 5.75064C13.2906 4.38124 13.2535 4.46291 13.537 4.53296C13.6689 4.56556 15.9608 5.10491 18.6303 5.73163ZM31.0743 12.5537C28.7028 12.9589 26.6662 13.9627 24.9262 15.584C23.2208 17.173 22.1127 19.0907 21.5488 21.4289C21.2967 22.4744 21.3185 25.2037 21.5877 26.2981C22.1166 28.4482 23.1784 30.3066 24.7492 31.8315C26.4496 33.4823 28.6647 34.6091 31.0047 35.0135C32.0747 35.1984 33.92 35.198 35.0275 35.0125C38.6998 34.3975 41.8602 32.1273 43.5288 28.9058C45.1488 25.7781 45.1893 22.0065 43.6367 18.8678C42.2292 16.0222 39.6147 13.8334 36.5142 12.905C34.7761 12.3846 32.808 12.2574 31.0743 12.5537ZM34.5465 13.835C35.7252 14.0178 35.7112 14.0092 35.9362 14.6875C36.0466 15.0202 36.3462 15.6977 36.6021 16.193L37.0672 17.0935L36.5361 17.8179C36.2439 18.2164 35.9159 18.6602 35.807 18.8043L35.6091 19.0662L34.9248 18.9573C33.9618 18.8042 32.0315 18.812 31.0667 18.9729L30.2669 19.1063L30.0123 18.8243C29.8723 18.6692 29.5805 18.3349 29.3638 18.0813L28.9698 17.6202L29.2643 16.9524C29.6 16.1909 29.9652 15.0654 30.052 14.5243C30.0983 14.2363 30.1589 14.1392 30.3323 14.0752C31.098 13.7926 33.4196 13.6603 34.5465 13.835ZM28.3135 15.5787C28.1553 16.0414 27.9284 16.591 27.8093 16.8C27.6008 17.1664 27.5691 17.1855 26.9376 17.3288C26.3404 17.4643 24.9185 17.6548 24.8579 17.6076C24.7943 17.5579 26.4264 16.0233 26.8945 15.6924C27.3791 15.35 28.5265 14.6895 28.5786 14.723C28.5911 14.731 28.4718 15.1161 28.3135 15.5787ZM39.1022 15.6353C39.3713 15.8334 39.7845 16.1576 40.0204 16.3557L40.4496 16.716L40.0997 16.7171C39.9073 16.7177 39.4407 16.6725 39.0628 16.6166C38.3957 16.5181 38.3692 16.5051 38.1513 16.1704C37.9373 15.8418 37.4325 14.8225 37.4325 14.7192C37.4325 14.6272 38.6121 15.2745 39.1022 15.6353ZM40.6287 18.0737L41.5951 18.0754L41.9445 18.6485C42.6898 19.8705 43.2129 21.3652 43.3351 22.6218L43.3925 23.2117L43.0541 23.3952C42.5715 23.6569 41.4061 24.5088 40.8499 25.0066L40.3758 25.4309L39.4378 25.0896L38.4998 24.7483L38.4436 24.3197C38.3028 23.2455 37.7058 21.5527 37.0532 20.3768L36.752 19.8341L37.2804 19.1033C37.571 18.7014 37.8992 18.2534 38.0098 18.1078L38.211 17.8429L38.9367 17.9575C39.3359 18.0205 40.0973 18.0728 40.6287 18.0737ZM28.5827 19.2546L29.2019 19.9669L28.9139 20.528C28.3488 21.6295 27.8416 23.2597 27.6824 24.4866L27.6271 24.9123L26.5443 25.3259L25.4616 25.7394L24.8079 25.1547C24.4484 24.8332 23.822 24.36 23.4159 24.1032L22.6777 23.6362L22.7139 23.1693C22.8111 21.9176 23.1178 20.7394 23.6561 19.5495L23.8918 19.0285L24.7372 18.9711C25.6592 18.9085 27.0034 18.7182 27.4192 18.5914C27.5635 18.5475 27.745 18.5184 27.8225 18.5269C27.9 18.5354 28.2421 18.8629 28.5827 19.2546ZM34.8526 20.311L35.4648 20.4138L35.745 20.8686C36.3554 21.8595 37.0826 23.9301 37.0826 24.6775C37.0826 24.8689 37.0019 25.0813 36.861 25.2607C36.3636 25.8937 34.2301 27.4426 33.3871 27.7828C33.0693 27.9111 33.0383 27.9071 32.4405 27.6601C31.2841 27.1824 30.0726 26.3415 29.3744 25.5319C29.0176 25.1182 29.0138 25.1067 29.0679 24.6047C29.2071 23.3114 30.13 20.7336 30.5437 20.4822C30.9843 20.2145 33.6473 20.1087 34.8526 20.311ZM43.2383 25.5181C43.1701 25.8993 43.015 26.5106 42.8937 26.8764C42.663 27.5717 41.9116 29.1121 41.8031 29.1121C41.7305 29.1121 41.4014 27.5797 41.3354 26.934L41.2906 26.4964L41.7883 26.0245C42.2213 25.614 43.3081 24.7677 43.3481 24.8099C43.3558 24.8181 43.3064 25.1368 43.2383 25.5181ZM23.5104 25.8336C23.8325 26.085 24.2101 26.4082 24.3495 26.5519C24.5899 26.7995 24.6003 26.8412 24.5507 27.3564C24.4827 28.0639 24.2988 29.0272 24.2319 29.0272C24.1723 29.0272 23.7187 28.1771 23.4401 27.5432C23.2735 27.1642 22.828 25.6424 22.828 25.4523C22.828 25.3198 22.9121 25.3668 23.5104 25.8336ZM39.0503 26.3783L39.9248 26.7002L39.9844 27.2814C40.058 28.0001 40.2697 28.9445 40.554 29.8236L40.7704 30.4926L40.3477 30.9129C40.1151 31.1441 39.6156 31.5607 39.2376 31.8387C38.424 32.4372 36.766 33.2552 36.6042 33.1379C35.7792 32.54 35.0278 32.0558 34.4406 31.7438L33.7212 31.3617L33.7453 30.2581C33.7615 29.5192 33.8039 29.1332 33.8738 29.0899C33.9311 29.0543 34.3227 28.8251 34.7437 28.5805C35.8008 27.9665 36.4459 27.495 37.2841 26.7234C37.6784 26.3605 38.0402 26.062 38.0883 26.06C38.1364 26.0579 38.5693 26.2012 39.0503 26.3783ZM30.3165 28.0653C30.7373 28.3317 31.3792 28.6751 31.7428 28.8286C32.1065 28.9821 32.3941 29.1278 32.3821 29.1523C32.3701 29.1769 32.3602 29.6703 32.3602 30.2488V31.3006L31.6825 31.6131C30.9462 31.9525 30.0607 32.471 29.5362 32.87L29.2045 33.1223L28.6617 32.8885C27.8164 32.5243 26.7488 31.8134 25.989 31.1088L25.2954 30.4653L25.4207 30.0647C25.6316 29.3901 25.7282 28.9399 25.8778 27.9354L26.0214 26.9709L27.0515 26.5722L28.0815 26.1734L28.8164 26.8773C29.2206 27.2644 29.8957 27.7991 30.3165 28.0653ZM33.5131 32.7706C34.0713 33.0441 35.0052 33.6193 34.961 33.6622C34.9469 33.6758 34.5061 33.7294 33.9813 33.7812C33.2909 33.8494 32.7659 33.8501 32.0826 33.7838C30.8545 33.6646 30.7861 33.6374 31.1531 33.4144C31.3993 33.2647 32.8813 32.5212 32.9531 32.5114C32.9665 32.5096 33.2185 32.6262 33.5131 32.7706Z" fill="#FCFCFC"/>
</svg>
