<svg width="54" height="42" viewBox="0 0 54 42" fill="none" xmlns="http://www.w3.org/2000/svg">
<path fill-rule="evenodd" clip-rule="evenodd" d="M26.2652 0.938198C25.9287 1.17377 25.9258 1.21163 25.9258 5.28934C25.9258 9.19927 25.9409 9.41789 26.2311 9.70812C26.6237 10.1006 27.3653 10.1006 27.7579 9.70812C28.0481 9.41789 28.0632 9.19927 28.0632 5.30431C28.0632 1.52766 28.0412 1.18598 27.784 0.95316C27.4325 0.634992 26.7081 0.627816 26.2652 0.938198ZM7.7461 7.86431C7.5006 8.1098 7.29984 8.4127 7.29984 8.53759C7.29984 8.90186 8.34747 10.1197 10.1779 11.8837C11.5414 13.1976 11.9688 13.5249 12.3217 13.5249C12.8733 13.5249 13.3624 13.1222 13.4963 12.5577C13.5914 12.1568 13.4259 11.9519 11.2455 9.77148C9.57892 8.10492 8.78992 7.41805 8.54213 7.41805C8.34976 7.41805 7.99159 7.61881 7.7461 7.86431ZM42.8188 9.69148C40.8528 11.6455 40.5314 12.0313 40.5314 12.4376C40.5314 13.0834 40.965 13.5249 41.5992 13.5249C42.0443 13.5249 42.3415 13.3016 43.8805 11.8107C46.7281 9.05209 46.9924 8.61377 46.2536 7.87499C46.0023 7.62369 45.6412 7.41805 45.4514 7.41805C45.2108 7.41805 44.4133 8.1069 42.8188 9.69148ZM25.2388 13.9394C23.4437 14.1877 21.3463 15.0237 19.5946 16.1892C15.0114 19.2388 12.8434 25.2057 14.3905 30.5119C14.6052 31.248 14.7808 31.9498 14.7808 32.0715C14.7808 32.5289 14.1827 32.6089 10.7656 32.6089C7.5322 32.6089 7.31862 32.6266 6.93877 32.9254C6.45297 33.3075 6.40732 33.9423 6.82839 34.4622L7.12014 34.8226H26.965C46.2656 34.8226 46.8186 34.8147 47.1311 34.5318C47.6003 34.1072 47.5611 33.3271 47.0502 32.9254C46.669 32.6254 46.4591 32.6089 43.0232 32.6089C40.234 32.6089 39.3603 32.5631 39.2334 32.4103C39.113 32.2651 39.1656 31.9064 39.4299 31.0742C41.2623 25.3042 39.1371 19.2696 34.1192 15.9941C31.5815 14.3373 28.1321 13.5393 25.2388 13.9394ZM29.6724 16.5023C30.1728 16.6284 31.1663 17.0219 31.88 17.3767C33.5887 18.226 35.671 20.2434 36.4927 21.8455C37.4337 23.6806 37.6815 24.7442 37.6815 26.9484C37.6815 29.0687 37.5241 29.8355 36.7311 31.5784L36.2623 32.6089H26.9945H17.7267L17.2579 31.5784C16.4641 29.8338 16.3075 29.0693 16.3075 26.9402C16.3075 25.2892 16.3652 24.8089 16.6852 23.8C17.2343 22.0687 18.0363 20.7987 19.5111 19.3252C20.9191 17.9185 22.0426 17.2234 23.8611 16.6342C25.194 16.2022 28.2099 16.1338 29.6724 16.5023ZM0.987625 26.1706C0.646099 26.5478 0.661213 27.4567 1.01419 27.7761C1.25923 27.9979 1.79007 28.0287 5.35938 28.0287C9.34549 28.0287 9.43144 28.0222 9.73663 27.6945C10.1343 27.2677 10.1343 26.6524 9.73663 26.2255C9.43129 25.8977 9.34625 25.8913 5.33282 25.8913C1.56198 25.8913 1.22045 25.9133 0.987625 26.1706ZM44.2464 26.1967C44.0785 26.3646 43.9411 26.644 43.9411 26.8174C43.9411 27.1765 44.2108 27.7454 44.4601 27.9119C44.5525 27.9736 46.4162 28.0251 48.6017 28.0264C53.1327 28.029 53.254 28.0017 53.254 26.975C53.254 25.899 53.2212 25.8913 48.6237 25.8913C44.7553 25.8913 44.5365 25.9066 44.2464 26.1967ZM16.38 39.0874C15.9276 39.5397 15.8963 40.0779 16.2939 40.569L16.5858 40.9295L26.9084 40.9709L37.2311 41.0121L37.6261 40.6171C37.9464 40.2968 38.0027 40.1307 37.9241 39.7382C37.7235 38.7348 38.398 38.7962 27.0617 38.7507L16.7579 38.7095L16.38 39.0874Z" fill="#FCFCFC"/>
</svg>
